<?xml version="1.0" encoding="UTF-8"?>
<svg id="_레이어_1" data-name="레이어 1" xmlns="http://www.w3.org/2000/svg" viewBox="0 0 1000 1080">
  <defs>
    <style>
      .cls-1 {
        fill: #fff;
      }
    </style>
  </defs>
  <g>
    <path class="cls-1" d="M618.67,354.48h-129.63c-47.95,0-86.8,38.86-86.8,86.8s38.85,86.8,86.8,86.8h92.2c24.83,0,40.92,16.88,40.92,39.88v155.65c0,24.29-11.95,31.33-42.57,31.33h-171.28c-21.97,0-30.37-9.19-30.37-29.36V228.31c0-42.86-31.13-78.4-72.01-85.44-9.37-2.78-10.89-15.58-10.72-23.93.17-8.26.56-18.98,7.61-23.8,21.3-4.99,37.18-24.07,37.18-46.92,0-26.64-21.59-48.23-48.23-48.23s-48.23,21.59-48.23,48.23c0,22.74,15.74,41.74,36.9,46.83,7.15,4.77,7.54,15.58,7.71,23.88.16,8.13-1.3,20.43-10.02,23.65-41.77,6.3-73.8,42.22-73.8,85.72v519.68c0,111.79,92.31,180.55,175.9,180.55h234.94c104.53,0,180.56-77.43,180.56-178.23v-214.11c0-92.2-67.99-181.73-177.08-181.73Z"/>
    <path class="cls-1" d="M522.49,627.03c0-19.38-15.73-35.1-35.1-35.1s-35.1,15.72-35.1,35.1,15.71,35.07,35.1,35.07,35.1-15.7,35.1-35.07Z"/>
    <path class="cls-1" d="M592.94,627.03c0-19.38-11.14-35.1-24.87-35.1s-24.86,15.72-24.86,35.1,11.13,35.07,24.86,35.07,24.87-15.7,24.87-35.07Z"/>
  </g>
  <g>
    <path class="cls-1" d="M343.78,1072.73c0,4.24-3.47,7.7-7.7,7.7h-5.71c-4.24,0-7.7-3.46-7.7-7.7v-74.94c0-4.24,3.46-7.69,7.7-7.69h5.71c4.22,0,7.7,3.46,7.7,7.69v74.94Z"/>
    <path class="cls-1" d="M797.36,1003.5c0,4.24-3.46,7.68-7.7,7.68h-25.38c-4.22,0-7.68,3.46-7.68,7.7v53.85c0,4.24-3.46,7.7-7.7,7.7h-5.7c-4.24,0-7.71-3.46-7.71-7.7v-53.85c0-4.24-3.46-7.7-7.68-7.7h-25.41c-4.22,0-7.67-3.44-7.67-7.68v-5.71c0-4.24,3.45-7.69,7.67-7.69h87.25c4.24,0,7.7,3.46,7.7,7.69v5.71Z"/>
    <path class="cls-1" d="M305.11,1034.64c6.21-4.67,9.31-11.21,9.31-19.65,0-6.76-2.1-12.49-6.33-17.19-4.68-5.14-11.42-6.35-11.42-6.35-4.15-.75-11.01-1.35-15.25-1.35h-70.74c-4.22,0-7.68,3.46-7.68,7.69v74.94c0,4.24,3.46,7.7,7.68,7.7h80.01c7.97,0,14.3-2.56,18.98-7.71,4.32-4.69,6.5-10.4,6.5-17.19,0-9.34-3.69-16.3-11.07-20.87ZM289.3,1058.51h-59c-3.5,0-6.35-2.84-6.35-6.36s2.85-6.34,6.35-6.34h59c3.5,0,6.34,2.84,6.34,6.34s-2.84,6.36-6.34,6.36ZM289.3,1022.15h-59c-3.5,0-6.35-2.85-6.35-6.37s2.85-6.35,6.35-6.35h59c3.5,0,6.34,2.85,6.34,6.35s-2.84,6.37-6.34,6.37Z"/>
    <path class="cls-1" d="M498.78,1011.18h62.33c4.24,0,7.7-3.44,7.7-7.68v-5.71c0-4.24-3.46-7.69-7.7-7.69h-62.33c-8.21,0-15.18,2.72-20.92,8.15-5.74,5.44-8.62,12.25-8.62,20.45v33.14c0,8.18,2.88,14.99,8.62,20.44,5.74,5.43,12.71,8.15,20.92,8.15h62.33c4.24,0,7.7-3.46,7.7-7.7v-5.7c0-4.23-3.46-7.69-7.7-7.69h-62.33c-5.63,0-8.44-2.5-8.44-7.55v-33.07c0-5.03,2.81-7.54,8.44-7.54Z"/>
    <path class="cls-1" d="M453.59,1033.13c-4.91-5.61-11.14-8.41-18.65-8.41h-56.88c-2.94,0-4.41-2.22-4.41-6.68s1.47-6.86,4.41-6.86h70.5c4.23,0,7.67-3.44,7.67-7.68v-5.71c0-4.24-3.44-7.69-7.67-7.69h-70.34c-7.5,0-13.65,2.75-18.46,8.25-4.79,5.53-7.21,12.07-7.21,19.69s2.35,14.07,7.04,19.31c4.93,5.64,11.14,8.45,18.64,8.45h56.76c2.92,0,4.39,2.26,4.39,6.76s-1.47,6.77-4.39,6.77h-70.34c-4.22,0-7.68,3.46-7.68,7.69v5.7c0,4.24,3.46,7.7,7.68,7.7h70.34c7.51,0,13.71-2.79,18.63-8.4,4.55-5.38,6.84-11.85,6.84-19.45s-2.3-14.08-6.87-19.44Z"/>
    <path class="cls-1" d="M688.33,1017.98c0-7.59-2.36-14.15-7.12-19.65-4.74-5.49-10.93-8.24-18.54-8.24h-59.75c-7.51,0-13.61,2.75-18.37,8.24-4.75,5.5-7.12,12.06-7.12,19.65v54.75c0,4.24,3.47,7.7,7.7,7.7h5.7c4.23,0,7.7-3.46,7.7-7.7v-54.7c0-4.57,1.47-6.84,4.39-6.84h59.75c3.05,0,4.57,2.29,4.57,6.86v12.64h-19.5s-28.45-.01-28.45-.01c-4.24,0-7.7,3.46-7.7,7.69v5.72c0,4.23,3.46,7.69,7.7,7.69h5.11v.02h42.8v20.95c0,4.24,3.46,7.7,7.71,7.7h5.7c4.22,0,7.7-3.46,7.7-7.7v-4.09h.03v-50.66Z"/>
  </g>
</svg>