<?xml version="1.0" encoding="UTF-8"?>
<svg id="_레이어_1" data-name="레이어 1" xmlns="http://www.w3.org/2000/svg" viewBox="0 0 1000 1080">
  <defs>
    <style>
      .cls-1 {
        fill: #9c27b0;
      }
    </style>
  </defs>
  <g>
    <path class="cls-1" d="M143.62,485.27h-44.93c-16.62,0-30.09,13.47-30.09,30.09s13.47,30.09,30.09,30.09h31.96c8.61,0,14.19,5.85,14.19,13.82v53.95c0,8.42-4.15,10.86-14.76,10.86h-59.37c-7.62,0-10.53-3.18-10.53-10.17v-172.37c0-14.85-10.79-27.18-24.96-29.62-3.25-.96-3.78-5.4-3.72-8.29.06-2.87.19-6.58,2.64-8.25,7.39-1.73,12.89-8.35,12.89-16.26,0-9.23-7.49-16.72-16.72-16.72s-16.72,7.48-16.72,16.72c0,7.88,5.46,14.47,12.79,16.23,2.48,1.65,2.61,5.4,2.67,8.27.06,2.82-.45,7.08-3.47,8.2-14.48,2.18-25.58,14.64-25.58,29.71v180.14c0,38.75,32,62.58,60.98,62.58h81.44c36.23,0,62.59-26.84,62.59-61.78v-74.22c0-31.96-23.57-62.99-61.38-62.99Z"/>
    <path class="cls-1" d="M110.29,579.75c0-6.72-5.45-12.16-12.17-12.16s-12.17,5.44-12.17,12.16,5.45,12.16,12.17,12.16,12.17-5.44,12.17-12.16Z"/>
    <path class="cls-1" d="M134.71,579.75c0-6.72-3.86-12.16-8.62-12.16s-8.62,5.44-8.62,12.16,3.86,12.16,8.62,12.16,8.62-5.44,8.62-12.16Z"/>
  </g>
  <path class="cls-1" d="M270.73,669.67c0,6.73-5.52,12.22-12.22,12.22h-9.06c-6.73,0-12.22-5.49-12.22-12.22v-118.95c0-6.72,5.49-12.2,12.22-12.2h9.06c6.7,0,12.22,5.49,12.22,12.2v118.95Z"/>
  <path class="cls-1" d="M1000,559.79c0,6.73-5.5,12.2-12.23,12.2h-40.28c-6.7,0-12.2,5.49-12.2,12.22v85.47c0,6.73-5.49,12.22-12.22,12.22h-9.05c-6.73,0-12.23-5.49-12.23-12.22v-85.47c0-6.73-5.48-12.22-12.18-12.22h-40.32c-6.7,0-12.18-5.47-12.18-12.2v-9.06c0-6.72,5.49-12.2,12.18-12.2h138.48c6.73,0,12.23,5.49,12.23,12.2v9.06Z"/>
  <path class="cls-1" d="M526.08,571.99h98.94c6.73,0,12.23-5.47,12.23-12.2v-9.06c0-6.72-5.5-12.2-12.23-12.2h-98.94c-13.02,0-24.1,4.32-33.2,12.94-9.1,8.63-13.68,19.42-13.68,32.45v52.61c0,12.99,4.58,23.8,13.68,32.45,9.1,8.61,20.18,12.93,33.2,12.93h98.94c6.73,0,12.23-5.49,12.23-12.22v-9.04c0-6.73-5.5-12.21-12.23-12.21h-98.94c-8.92,0-13.39-3.98-13.39-11.98v-52.5c0-7.99,4.46-11.96,13.39-11.96Z"/>
  <path class="cls-1" d="M454.36,606.82c-7.8-8.89-17.68-13.35-29.6-13.35h-90.28c-4.67,0-7-3.52-7-10.6s2.33-10.89,7-10.89h111.9c6.72,0,12.2-5.47,12.2-12.2v-9.06c0-6.72-5.47-12.2-12.2-12.2h-111.64c-11.9,0-21.66,4.36-29.3,13.1-7.6,8.76-11.44,19.15-11.44,31.26s3.73,22.32,11.16,30.65c7.82,8.95,17.68,13.41,29.58,13.41h90.09c4.65,0,6.98,3.59,6.98,10.73s-2.33,10.75-6.98,10.75h-111.64c-6.7,0-12.19,5.49-12.19,12.21v9.04c0,6.73,5.49,12.22,12.19,12.22h111.64c11.92,0,21.76-4.43,29.58-13.34,7.23-8.54,10.87-18.8,10.87-30.88s-3.64-22.34-10.92-30.85Z"/>
  <path class="cls-1" d="M826.95,582.79c0-12.06-3.75-22.47-11.3-31.19-7.52-8.71-17.34-13.07-29.42-13.07h-94.84c-11.91,0-21.6,4.36-29.16,13.07-7.53,8.72-11.3,19.14-11.3,31.19v86.89c0,6.73,5.49,12.22,12.23,12.22h9.05c6.72,0,12.22-5.49,12.22-12.22v-86.82c0-7.25,2.33-10.87,6.96-10.87h94.84c4.85,0,7.25,3.64,7.25,10.89v20.06h-30.95v-.02h-45.16c-6.73,0-12.22,5.49-12.22,12.22v9.06c0,6.72,5.49,12.2,12.22,12.2h8.1v.02h67.93v33.25c0,6.73,5.5,12.22,12.23,12.22h9.05c6.69,0,12.21-5.49,12.21-12.22v-6.48h.05v-80.41Z"/>
</svg>