<?xml version="1.0" encoding="UTF-8"?>
<svg id="_레이어_1" data-name="레이어 1" xmlns="http://www.w3.org/2000/svg" viewBox="0 0 1000 1000">
  <defs>
    <style>
      .cls-1 {
        fill: #9c27b0;
      }

      .cls-2 {
        fill: #b39ddb;
      }

      .cls-3 {
        fill: #250314;
      }

      .cls-4 {
        fill: #fff;
      }

      .cls-5 {
        fill: #512da8;
      }
    </style>
  </defs>
  <rect class="cls-3" x="483.68" y="127.58" width="36.04" height="697.82"/>
  <rect class="cls-3" x="483.68" y="182.21" width="36.04" height="588.97" transform="translate(-161.99 672.83) rotate(-60)"/>
  <rect class="cls-3" x="152.79" y="458.47" width="697.82" height="36.04" transform="translate(-171.03 314.67) rotate(-30)"/>
  <g>
    <circle class="cls-4" cx="501.7" cy="477.83" r="87.78" transform="translate(-81.59 851.72) rotate(-76.26)"/>
    <path class="cls-3" d="M501.7,583.63c-58.34,0-105.8-47.46-105.8-105.8s47.46-105.8,105.8-105.8,105.8,47.46,105.8,105.8-47.46,105.8-105.8,105.8ZM501.7,408.06c-38.47,0-69.76,31.3-69.76,69.76s31.3,69.76,69.76,69.76,69.76-31.3,69.76-69.76-31.3-69.76-69.76-69.76Z"/>
  </g>
  <g>
    <circle class="cls-4" cx="501.7" cy="129.8" r="111.78"/>
    <path class="cls-3" d="M501.7,259.61c-71.58,0-129.81-58.23-129.81-129.81S430.12,0,501.7,0s129.81,58.23,129.81,129.8-58.23,129.81-129.81,129.81ZM501.7,36.04c-51.7,0-93.77,42.06-93.77,93.76s42.06,93.77,93.77,93.77,93.77-42.06,93.77-93.77-42.06-93.76-93.77-93.76Z"/>
  </g>
  <g>
    <circle class="cls-5" cx="200.3" cy="303.81" r="104.01" transform="translate(-156.16 230.62) rotate(-45)"/>
    <path class="cls-3" d="M200.09,425.82c-20.69,0-41.64-5.26-60.81-16.32-58.27-33.64-78.31-108.42-44.66-166.69,16.3-28.23,42.61-48.42,74.09-56.86,31.48-8.44,64.37-4.11,92.6,12.19h0c58.27,33.64,78.31,108.42,44.66,166.69-22.58,39.1-63.68,60.99-105.89,60.99ZM200.44,217.79c-7.47,0-14.99.98-22.4,2.97-22.19,5.94-40.73,20.17-52.21,40.06-23.71,41.06-9.59,93.75,31.47,117.46,41.06,23.71,93.75,9.59,117.46-31.47,23.71-41.06,9.59-93.75-31.47-117.46h0c-13.25-7.65-27.95-11.56-42.85-11.56Z"/>
  </g>
  <g>
    <circle class="cls-4" cx="200.3" cy="651.84" r="135.83" transform="translate(-402.25 332.55) rotate(-45)"/>
    <path class="cls-3" d="M200.55,805.75c-13.36,0-26.82-1.75-40.07-5.3-39.69-10.64-72.87-36.09-93.42-71.69-20.55-35.59-26.01-77.05-15.37-116.75,10.64-39.69,36.09-72.87,71.68-93.42,35.58-20.55,77.04-26.01,116.74-15.37,39.69,10.64,72.87,36.09,93.42,71.69,20.55,35.59,26,77.05,15.37,116.74-10.64,39.7-36.09,72.87-71.68,93.42-23.71,13.69-50.02,20.67-76.67,20.67ZM200.11,533.98c-20.42,0-40.56,5.35-58.71,15.83h0c-27.25,15.73-46.75,41.14-54.89,71.54-8.15,30.39-3.96,62.14,11.77,89.39,15.73,27.26,41.14,46.75,71.53,54.89,30.4,8.15,62.15,3.97,89.4-11.77,27.25-15.73,46.75-41.14,54.89-71.54,8.15-30.39,3.96-62.14-11.77-89.39-15.73-27.26-41.14-46.75-71.54-54.89-10.15-2.72-20.45-4.06-30.68-4.06Z"/>
  </g>
  <g>
    <circle class="cls-2" cx="501.7" cy="897.85" r="85.12" transform="translate(-105.94 68.03) rotate(-7.02)"/>
    <path class="cls-3" d="M501.7,1000.99c-56.87,0-103.14-46.27-103.14-103.14s46.27-103.14,103.14-103.14,103.14,46.27,103.14,103.14-46.27,103.14-103.14,103.14ZM501.7,830.75c-37,0-67.1,30.1-67.1,67.1s30.1,67.1,67.1,67.1,67.1-30.1,67.1-67.1-30.1-67.1-67.1-67.1Z"/>
  </g>
  <g>
    <circle class="cls-1" cx="803.09" cy="651.84" r="133.08" transform="translate(-225.7 758.79) rotate(-45)"/>
    <path class="cls-3" d="M802.84,802.9c-25.62,0-51.56-6.51-75.3-20.21h0c-72.15-41.66-96.96-134.25-55.31-206.4,20.18-34.95,52.76-59.95,91.75-70.4,38.99-10.43,79.71-5.09,114.65,15.1,34.95,20.18,59.96,52.76,70.4,91.74,10.45,38.99,5.09,79.7-15.09,114.65-27.95,48.42-78.85,75.52-131.1,75.52ZM745.56,751.47c54.93,31.71,125.44,12.83,157.17-42.11,15.37-26.62,19.45-57.62,11.49-87.31-7.95-29.68-26.99-54.49-53.61-69.86-26.61-15.36-57.61-19.45-87.31-11.5-29.68,7.95-54.5,26.99-69.86,53.61-31.72,54.94-12.82,125.44,42.11,157.17h0Z"/>
  </g>
  <g>
    <path class="cls-4" d="M839.65,367.13c-34.97,20.19-79.69,8.21-99.88-26.76-20.19-34.97-8.21-79.69,26.76-99.88,34.97-20.19,79.69-8.21,99.88,26.76,20.19,34.97,8.21,79.69-26.76,99.88Z"/>
    <path class="cls-3" d="M803.25,394.93c-31.52,0-62.22-16.34-79.08-45.55-25.12-43.52-10.16-99.36,33.36-124.49,43.52-25.13,99.36-10.16,124.49,33.36,12.17,21.08,15.41,45.64,9.11,69.15-6.3,23.52-21.38,43.17-42.46,55.34-14.31,8.26-29.96,12.19-45.41,12.19ZM802.99,248.73c-9.34,0-18.8,2.37-27.45,7.37-26.31,15.19-35.36,48.95-20.17,75.26,15.19,26.31,48.96,35.36,75.26,20.16h0c12.75-7.36,21.87-19.24,25.67-33.45,3.81-14.22,1.86-29.06-5.51-41.81-10.19-17.66-28.75-27.54-47.81-27.54Z"/>
  </g>
  <g>
    <path class="cls-4" d="M843.72,651.83c0-13.44-10.9-24.34-24.34-24.34s-24.34,10.9-24.34,24.34,10.89,24.32,24.34,24.32,24.34-10.89,24.34-24.32Z"/>
    <path class="cls-4" d="M892.58,651.83c0-13.44-7.73-24.34-17.25-24.34s-17.24,10.9-17.24,24.34,7.72,24.32,17.24,24.32,17.25-10.89,17.25-24.32Z"/>
  </g>
</svg>