<?xml version="1.0" encoding="UTF-8"?>
<svg id="pt_그리드_이미지" data-name="pt 그리드 이미지" xmlns="http://www.w3.org/2000/svg" viewBox="0 0 853.11 853.11">
  <defs>
    <style>
      .cls-1 {
        fill: #823e03;
      }

      .cls-2 {
        fill: #f5b250;
      }

      .cls-3 {
        fill: #e18d24;
      }

      .cls-4 {
        fill: #ffcd7c;
      }

      .cls-5 {
        fill: #f7b653;
      }
    </style>
  </defs>
  <g>
    <g>
      <path class="cls-2" d="M777.5,294.92s51.2,4.42,50.59,48.28l-47.92-40.39-2.68-7.89Z"/>
      <path class="cls-2" d="M169.67,792.55c4.04,6.73,10.21,11.98,17.41,14.95-1.26-3.09-2.1-6.41-2.44-9.9-5.36-.55-10.46-2.32-14.97-5.05Z"/>
      <path class="cls-3" d="M818.25,369.25c10.48-11.11,12.16-26.06,7.17-38.38-2.89-7.12-8-13.36-14.95-17.47,2.71,4.54,4.42,9.63,4.99,14.88,1.07,9.86-1.84,20.26-9.65,28.54l-148.01,156.9c-7.42,7.87-10.92,18.65-9.55,29.38l27.51,213.93c3.64,28.31-25.45,49.45-51.25,37.24l-194.96-92.28c-9.78-4.63-21.11-4.63-30.89,0l-194.96,92.28c-6.34,3-12.88,3.98-19.09,3.34.34,3.49,1.18,6.8,2.44,9.9,8.83,3.65,19.2,3.88,29.08-.8l194.96-92.28c9.78-4.63,21.11-4.63,30.89,0l194.96,92.28c25.8,12.21,54.89-8.93,51.25-37.24l-27.51-213.93c-1.38-10.73,2.12-21.51,9.55-29.38l148.01-156.9Z"/>
      <path class="cls-4" d="M458.24,61.66c-3.31-6.06-7.93-10.63-13.22-13.76-16.57-9.8-39.75-5.23-50.13,13.76l-103.49,189.25c-5.19,9.49-14.36,16.15-24.99,18.16l-211.96,39.94c-28.05,5.28-39.16,39.49-19.58,60.25l148.01,156.9c7.42,7.87,10.92,18.65,9.55,29.38l-27.51,213.93c-1.11,8.61.83,16.54,4.76,23.09,4.51,2.73,9.61,4.5,14.97,5.05-.26-2.67-.24-5.44.13-8.28l27.51-213.93c1.38-10.73-2.12-21.51-9.55-29.38L54.73,389.11c-19.58-20.76-8.47-54.96,19.58-60.25l211.96-39.94c10.63-2,19.8-8.67,24.99-18.16l103.49-189.25c8.17-14.94,24.27-20.96,38.83-18.07,2.3.46,4.56,1.14,6.75,2.04l-2.09-3.82Z"/>
      <path class="cls-4" d="M786.25,296.57l-211.96-39.94c-.16-.03-.32-.07-.49-.11-4.06-.82-7.89-2.33-11.36-4.41,3.98,6.66,9.97,11.8,17.03,14.76,2.32.97,4.74,1.71,7.26,2.19l211.96,39.94c4.36.82,8.31,2.34,11.8,4.4-4.97-8.33-13.31-14.78-24.23-16.84Z"/>
      <path class="cls-5" d="M805.82,356.82c7.8-8.27,10.72-18.68,9.65-28.54-.57-5.25-2.28-10.34-4.99-14.88-3.49-2.06-7.44-3.58-11.8-4.4l-211.96-39.94c-2.51-.47-4.94-1.22-7.26-2.19-7.06-2.96-13.04-8.1-17.03-14.76-.24-.4-.48-.8-.71-1.21l-101.4-185.42c-2.19-.9-4.45-1.58-6.75-2.04-14.57-2.89-30.66,3.13-38.83,18.07l-103.49,189.25c-5.19,9.49-14.36,16.15-24.99,18.16l-211.96,39.94c-28.05,5.28-39.16,39.49-19.58,60.25l148.01,156.9c7.42,7.87,10.92,18.65,9.55,29.38l-27.51,213.93c-.37,2.84-.39,5.61-.13,8.28,6.21.64,12.75-.34,19.09-3.34l194.96-92.28c9.78-4.63,21.11-4.63,30.89,0l194.96,92.28c25.8,12.21,54.89-8.93,51.25-37.24l-27.51-213.93c-1.38-10.73,2.12-21.51,9.55-29.38l148.01-156.9Z"/>
    </g>
    <path class="cls-1" d="M426.54,42.89c6.41,0,12.83,1.67,18.47,5.01,5.29,3.13,9.91,7.7,13.22,13.76l2.09,3.82,101.4,185.42c.23.41.47.81.71,1.21,3.47,2.08,7.31,3.58,11.36,4.41.16.03.32.07.49.11l203.22,38.29s51.2,4.42,50.59,48.28h0c.37,9.1-2.68,18.47-9.83,26.05l-148.01,156.9c-7.42,7.87-10.92,18.65-9.55,29.38l27.51,213.93c2.92,22.69-15.19,40.77-35.78,40.77-5.1,0-10.35-1.11-15.47-3.53l-194.96-92.28c-4.89-2.31-10.17-3.47-15.44-3.47s-10.56,1.16-15.44,3.47l-194.96,92.28c-5.11,2.42-10.35,3.53-15.45,3.53-4.75,0-9.38-.96-13.64-2.73-7.2-2.97-13.36-8.22-17.41-14.95-3.93-6.55-5.87-14.48-4.76-23.09l27.51-213.93c1.38-10.73-2.12-21.51-9.55-29.38L34.87,369.25c-19.58-20.76-8.47-54.96,19.58-60.25l211.96-39.94c10.63-2,19.8-8.67,24.99-18.16l103.49-189.25c6.84-12.52,19.25-18.77,31.66-18.77M426.55,17.89v25s0-25,0-25c-10.64,0-21.1,2.75-30.26,7.95-9.78,5.55-17.84,13.79-23.33,23.82l-103.49,189.25c-1.6,2.93-4.4,4.96-7.68,5.58l-211.96,39.94c-11.24,2.12-21.57,7.25-29.87,14.83-7.78,7.11-13.63,16.21-16.92,26.33-3.29,10.12-3.91,20.92-1.79,31.25,2.26,11.02,7.6,21.24,15.45,29.56l148.01,156.9c2.29,2.43,3.36,5.72,2.94,9.03l-27.51,213.93c-1.78,13.81,1.03,27.35,8.13,39.16,6.74,11.22,17.15,20.16,29.3,25.18,7.42,3.06,15.22,4.62,23.18,4.62,9.03,0,17.83-2,26.14-5.93l194.96-92.28c1.5-.71,3.09-1.07,4.75-1.07s3.25.36,4.75,1.07l194.96,92.28c8.32,3.94,17.13,5.94,26.17,5.94,17.52,0,34.27-7.62,45.96-20.91,11.53-13.11,16.85-30.62,14.61-48.05l-27.51-213.93c-.43-3.31.64-6.6,2.94-9.03l148.01-156.9c11.19-11.86,17.08-27.23,16.65-43.37.21-27.4-13.48-49.63-38.58-62.62-14.36-7.44-28.55-9.67-33.33-10.24l-201.15-37.9-97.77-178.79-2.09-3.82c-5.3-9.69-13.05-17.74-22.43-23.28-9.39-5.56-20.18-8.49-31.2-8.49h0Z"/>
  </g>
  <g>
    <circle class="cls-1" cx="291.57" cy="362.14" r="5.07"/>
    <circle class="cls-1" cx="381.56" cy="362.14" r="5.07"/>
    <circle class="cls-1" cx="471.56" cy="362.14" r="5.07"/>
    <circle class="cls-1" cx="561.55" cy="362.14" r="5.07"/>
    <circle class="cls-1" cx="336.57" cy="402.02" r="5.07"/>
    <circle class="cls-1" cx="426.56" cy="402.02" r="5.07"/>
    <circle class="cls-1" cx="516.55" cy="402.02" r="5.07"/>
    <circle class="cls-1" cx="291.57" cy="441.91" r="5.07"/>
    <circle class="cls-1" cx="381.56" cy="441.91" r="5.07"/>
    <circle class="cls-1" cx="471.56" cy="441.91" r="5.07"/>
    <circle class="cls-1" cx="561.55" cy="441.91" r="5.07"/>
    <circle class="cls-1" cx="336.57" cy="481.79" r="5.07"/>
    <circle class="cls-1" cx="426.56" cy="481.79" r="5.07"/>
    <circle class="cls-1" cx="516.55" cy="481.79" r="5.07"/>
    <circle class="cls-1" cx="291.57" cy="521.68" r="5.07"/>
    <circle class="cls-1" cx="381.56" cy="521.68" r="5.07"/>
    <circle class="cls-1" cx="471.56" cy="521.68" r="5.07"/>
    <circle class="cls-1" cx="561.55" cy="521.68" r="5.07"/>
    <circle class="cls-1" cx="336.57" cy="561.56" r="5.07"/>
    <circle class="cls-1" cx="426.56" cy="561.56" r="5.07"/>
    <circle class="cls-1" cx="516.55" cy="561.56" r="5.07"/>
    <circle class="cls-1" cx="291.57" cy="601.45" r="5.07"/>
    <circle class="cls-1" cx="381.56" cy="601.45" r="5.07"/>
    <circle class="cls-1" cx="471.56" cy="601.45" r="5.07"/>
    <circle class="cls-1" cx="561.55" cy="601.45" r="5.07"/>
  </g>
</svg>