<?xml version="1.0" encoding="UTF-8"?>
<svg id="pt_그리드_이미지" data-name="pt 그리드 이미지" xmlns="http://www.w3.org/2000/svg" viewBox="0 0 827.34 686.43">
  <defs>
    <style>
      .cls-1 {
        fill: #c9caca;
      }

      .cls-2 {
        fill: #3e3a39;
      }

      .cls-3 {
        fill: #595757;
      }

      .cls-4 {
        fill: none;
      }

      .cls-5 {
        fill: #efefef;
      }

      .cls-6 {
        fill: #dcdddd;
      }

      .cls-7 {
        fill: #9fa0a0;
      }
    </style>
  </defs>
  <path class="cls-4" d="M545.3,415.58l20.53-55.68-34.61-93.86c-5.28-14.33-39.49-20.01-60.25-10l-156.9,75.64c-7.87,3.79-18.65,5.58-29.38,4.88l-155.43-10.22,6.66,39.33,148.77-9.78c10.73-.7,21.51,1.09,29.38,4.88l156.9,75.64c7.58,3.65,16.95,5.21,26.05,5.02h0c43.86.31,48.28-25.85,48.28-25.85Z"/>
  <path class="cls-3" d="M286.33,91.62l-213.93-14.06c-11.17-.73-22.26.47-32.07,3.48-11.53,3.54-20.89,9.45-27.06,17.08-5.3,6.55-8.14,14.2-8.27,22.14l115.95,115.95,8.3-1.47v91.59l155.43,10.22c4.17.27,8.34.17,12.36-.28V91.03c-2.99.56-6.65.86-10.72.59Z"/>
  <path class="cls-7" d="M286.33,600.81c4.07-.27,7.73.04,10.72.59v-245.24c-4.01-.45-8.19-.56-12.36-.28l-148.77,9.78,1.58,9.34-77.18,5.18c-42.69.29-45.89-26.39-45.87-34.59-2.99.34-6,.5-9.04.56,0,.02,0,.03,0,.05-.29,1.8-.44,3.62-.44,5.46,0,.16.01.31.01.47,0,.18-.01.35-.01.53,0,.16.01.31.01.47,0,.18-.01.35-.01.53,0,.16.01.31.01.47,0,.18-.01.35-.01.53,0,.16.01.31.01.47,0,.18-.01.35-.01.53,0,.16.01.31.01.47,0,.18-.01.35-.01.53,0,.16.01.31.01.47,0,.18-.01.35-.01.53,0,.16.01.31.01.47,0,.18-.01.35-.01.53,0,.16.01.31.01.47,0,.18-.01.35-.01.53,0,.16.01.31.01.47,0,.18-.01.35-.01.53,0,.16.01.31.01.47,0,.18-.01.35-.01.53,0,.16.01.31.01.47,0,.18-.01.35-.01.53,0,.16.01.31.01.47,0,.18-.01.35-.01.53,0,.16.01.31.01.47,0,.18-.01.35-.01.53,0,.16.01.31.01.47,0,.18-.01.35-.01.53,0,.16.01.31.01.47,0,.18-.01.35-.01.53,0,.16.01.31.01.47,0,.18-.01.35-.01.53,0,.16.01.31.01.47,0,.18-.01.35-.01.53,0,.16.01.31.01.47,0,.18-.01.35-.01.53,0,.16.01.31.01.47,0,.18-.01.35-.01.53,0,.16.01.31.01.47,0,.18-.01.35-.01.53,0,.16.01.31.01.47,0,.18-.01.35-.01.53,0,.16.01.31.01.47,0,.18-.01.35-.01.53,0,.16.01.31.01.47,0,.18-.01.35-.01.53,0,.16.01.31.01.47,0,.18-.01.35-.01.53,0,.16.01.31.01.47,0,.18-.01.35-.01.53,0,.16.01.31.01.47,0,.18-.01.35-.01.53,0,.16.01.31.01.47,0,.18-.01.35-.01.53,0,.16.01.31.01.47,0,.18-.01.35-.01.53,0,.16.01.31.01.47,0,.18-.01.35-.01.53,0,.16.01.31.01.47,0,.18-.01.35-.01.53,0,.16.01.31.01.47,0,.18-.01.35-.01.53,0,.16.01.31.01.47,0,.18-.01.35-.01.53,0,.16.01.31.01.47,0,.18-.01.35-.01.53,0,.16.01.31.01.47,0,.18-.01.35-.01.53,0,.16.01.31.01.47,0,.18-.01.35-.01.53,0,.16.01.31.01.47,0,.18-.01.35-.01.53,0,.16.01.31.01.47,0,.18-.01.35-.01.53,0,.16.01.31.01.47,0,.18-.01.35-.01.53,0,.16.01.31.01.47,0,.18-.01.35-.01.53,0,.16.01.31.01.47,0,.18-.01.35-.01.53,0,.16.01.31.01.47,0,.18-.01.35-.01.53,0,.16.01.31.01.47,0,.18-.01.35-.01.53,0,.16.01.31.01.47,0,.18-.01.35-.01.53,0,.16.01.31.01.47,0,.18-.01.35-.01.53,0,.16.01.31.01.47,0,.18-.01.35-.01.53,0,.16.01.31.01.47,0,.18-.01.35-.01.53,0,.16.01.31.01.47,0,.18-.01.35-.01.53,0,.16.01.31.01.47,0,.18-.01.35-.01.53,0,.16.01.31.01.47,0,.18-.01.35-.01.53,0,.16.01.31.01.47,0,.18-.01.35-.01.53,0,.16.01.31.01.47,0,.18-.01.35-.01.53,0,.16.01.31.01.47,0,.18-.01.35-.01.53,0,.16.01.31.01.47,0,.18-.01.35-.01.53,0,.16.01.31.01.47,0,.18-.01.35-.01.53,0,.16.01.31.01.47,0,.18-.01.35-.01.53,0,.16.01.31.01.47,0,.18-.01.35-.01.53,0,.16.01.31.01.47,0,.18-.01.35-.01.53,0,.16.01.31.01.47,0,.18-.01.35-.01.53,0,.16.01.31.01.47,0,.18-.01.35-.01.53,0,.16.01.31.01.47,0,.18-.01.35-.01.53,0,.16.01.31.01.47,0,.18-.01.35-.01.53,0,.16.01.31.01.47,0,.18-.01.35-.01.53,0,.16.01.31.01.47,0,.18-.01.35-.01.53,0,.16.01.31.01.47,0,.18-.01.35-.01.53,0,.16.01.31.01.47,0,.18-.01.35-.01.53,0,.16.01.31.01.47,0,.18-.01.35-.01.53,0,.16.01.31.01.47,0,.18-.01.35-.01.53,0,.16.01.31.01.47,0,.18-.01.35-.01.53,0,.16.01.31.01.47,0,.18-.01.35-.01.53,0,.16.01.31.01.47,0,.18-.01.35-.01.53,0,.16.01.31.01.47,0,.18-.01.35-.01.53,0,.16.01.31.01.47,0,.18-.01.35-.01.53,0,.16.01.31.01.47,0,.18-.01.35-.01.53,0,.16.01.31.01.47,0,.18-.01.35-.01.53,0,.16.01.31.01.47,0,.18-.01.35-.01.53,0,.16.01.31.01.47,0,.18-.01.35-.01.53,0,.16.01.31.01.47,0,.18-.01.35-.01.53,0,.16.01.31.01.47,0,.18-.01.35-.01.53,0,.16.01.31.01.47,0,.18-.01.35-.01.53,0,.16.01.31.01.47,0,.18-.01.35-.01.53,0,.16.01.31.01.47,0,.18-.01.35-.01.53,0,.16.01.31.01.47,0,.18-.01.35-.01.53,0,.16.01.31.01.47,0,.18-.01.35-.01.53,0,.16.01.31.01.47,0,.18-.01.35-.01.53,0,.16.01.31.01.47,0,.18-.01.35-.01.53,0,.16.01.31.01.47,0,.18-.01.35-.01.53,0,.16.01.31.01.47,0,.18-.01.35-.01.53,0,.16.01.31.01.47,0,.18-.01.35-.01.53,0,.16.01.31.01.47,0,.18-.01.35-.01.53,0,.16.01.31.01.47,0,.18-.01.35-.01.53,0,.16.01.31.01.47,0,.18-.01.35-.01.53,0,.16.01.31.01.47,0,.18-.01.35-.01.53,0,.16.01.31.01.47,0,.18-.01.35-.01.53,0,.16.01.31.01.47,0,.18-.01.35-.01.53,0,.16.01.31.01.47,0,.18-.01.35-.01.53,0,.16.01.31.01.47,0,.18-.01.35-.01.53,0,.16.01.31.01.47,0,.18-.01.35-.01.53,0,.16.01.31.01.47,0,.18-.01.35-.01.53,0,.16.01.31.01.47,0,.18-.01.35-.01.53,0,.16.01.31.01.47,0,.18-.01.35-.01.53,0,.16.01.31.01.47,0,.18-.01.35-.01.53,0,.16.01.31.01.47,0,.18-.01.35-.01.53,0,.16.01.31.01.47,0,.18-.01.35-.01.53,0,.16.01.31.01.47,0,.18-.01.35-.01.53,0,.16.01.31.01.47,0,.18-.01.35-.01.53,0,.16.01.31.01.47,0,.18-.01.35-.01.53,0,.16.01.31.01.47,0,.18-.01.35-.01.53,0,.16.01.31.01.47,0,.18-.01.35-.01.53,0,.16.01.31.01.47,0,.18-.01.35-.01.53,0,.16.01.31.01.47,0,.18-.01.35-.01.53,0,.16.01.31.01.47,0,.18-.01.35-.01.53,0,.16.01.31.01.47,0,.18-.01.35-.01.53,0,.16.01.31.01.47,0,.18-.01.35-.01.53,0,.16.01.31.01.47,0,.18-.01.35-.01.53,0,.16.01.31.01.47,0,.18-.01.35-.01.53,0,.16.01.31.01.47,0,.18-.01.35-.01.53,0,.16.01.31.01.47,0,.18-.01.35-.01.53,0,.16.01.31.01.47,0,.18-.01.35-.01.53,0,.16.01.31.01.47,0,.18-.01.35-.01.53,0,.16.01.31.01.47,0,.18-.01.35-.01.53,0,.16.01.31.01.47,0,.18-.01.35-.01.53,0,.16.01.31.01.47,0,.18-.01.35-.01.53,0,.16.01.31.01.47,0,.18-.01.35-.01.53,0,.16.01.31.01.47,0,.18-.01.35-.01.53,0,.16.01.31.01.47,0,.18-.01.35-.01.53,0,.16.01.31.01.47,0,.18-.01.35-.01.53,0,.16.01.31.01.47,0,.18-.01.35-.01.53,0,.16.01.31.01.47,0,.18-.01.35-.01.53,0,.16.01.31.01.47,0,.18-.01.35-.01.53,0,.16.01.31.01.47,0,.18-.01.35-.01.53,0,.16.01.31.01.47,0,.18-.01.35-.01.53,0,.16.01.31.01.47,0,.18-.01.35-.01.53,0,.16.01.31.01.47,0,.18-.01.35-.01.53,0,.16.01.31.01.47,0,.18-.01.35-.01.53,0,.16.01.31.01.47,0,.18-.01.35-.01.53,0,.16.01.31.01.47,0,.18-.01.35-.01.53,0,.16.01.31.01.47,0,.18-.01.35-.01.53,0,.16.01.31.01.47,0,.18-.01.35-.01.53,0,.16.01.31.01.47,0,.18-.01.35-.01.53,0,.16.01.31.01.47,0,.18-.01.35-.01.53,0,.16.01.31.01.47,0,.18-.01.35-.01.53,0,.16.01.31.01.47,0,.18-.01.35-.01.53,0,.16.01.31.01.47,0,.18-.01.35-.01.53,0,.16.01.31.01.47,0,.18-.01.35-.01.53,0,.16.01.31.01.47,0,.18-.01.35-.01.53,0,.16.01.31.01.47,0,.18-.01.35-.01.53,0,.16.01.31.01.47,0,.18-.01.35-.01.53,0,.16.01.31.01.47,0,.18-.01.35-.01.53,0,.16.01.31.01.47,0,.18-.01.35-.01.53,0,.16.01.31.01.47,0,.18-.01.35-.01.53,0,.16.01.31.01.47,0,.18-.01.35-.01.53,0,.16.01.31.01.47,0,.18-.01.35-.01.53,0,.16.01.31.01.47,0,.18-.01.35-.01.53,0,.16.01.31.01.47,0,.18-.01.35-.01.53,0,.16.01.31.01.47,0,.18-.01.35-.01.53,0,.16.01.31.01.47,0,.18-.01.35-.01.53,0,.16.01.31.01.47,0,.18-.01.35-.01.53,0,.16.01.31.01.47,0,.18-.01.35-.01.53,0,.16.01.31.01.47,0,.18-.01.35-.01.53,0,.16.01.31.01.47,0,.18-.01.35-.01.53,0,.16.01.31.01.47,0,.18-.01.35-.01.53,0,.16.01.31.01.47,0,.18-.01.35-.01.53,0,.16.01.31.01.47,0,.18-.01.35-.01.53,0,.16.01.31.01.47,0,.18-.01.35-.01.53,0,.16.01.31.01.47,0,.18-.01.35-.01.53,0,.16.01.31.01.47,0,.18-.01.35-.01.53,0,.16.01.31.01.47,0,.18-.01.35-.01.53,0,.16.01.31.01.47,0,.18-.01.35-.01.53,0,.16.01.31.01.47,0,.18-.01.35-.01.53,0,.16.01.31.01.47,0,.18-.01.35-.01.53,0,.16.01.31.01.47,0,.18-.01.35-.01.53,0,.16.01.31.01.47,0,.18-.01.35-.01.53,0,.16.01.31.01.47,0,.18-.01.35-.01.53,0,.16.01.31.01.47,0,.18-.01.35-.01.53,0,.16.01.31.01.47,0,.18-.01.35-.01.53,0,.16.01.31.01.47,0,.18-.01.35-.01.53,0,.16.01.31.01.47,0,.18-.01.35-.01.53,0,.16.01.31.01.47,0,.18-.01.35-.01.53,0,.16.01.31.01.47,0,.18-.01.35-.01.53,0,.16.01.31.01.47,0,.18-.01.35-.01.53,0,.16.01.31.01.47,0,.18-.01.35-.01.53,0,.16.01.31.01.47,0,.18-.01.35-.01.53,0,.16.01.31.01.47,0,.18-.01.35-.01.53,0,.16.01.31.01.47,0,.18-.01.35-.01.53,0,.16.01.31.01.47,0,.18-.01.35-.01.53,0,.16.01.31.01.47,0,.18-.01.35-.01.53,0,.16.01.31.01.47,0,.18-.01.35-.01.53,0,.16.01.31.01.47,0,.18-.01.35-.01.53,0,.16.01.31.01.47,0,.18-.01.35-.01.53,0,.16.01.31.01.47,0,.18-.01.35-.01.53,0,.16.01.31.01.47,0,.18-.01.35-.01.53,0,.16.01.31.01.47,0,.18-.01.35-.01.53,0,.16.01.31.01.47,0,.18-.01.35-.01.53,0,.16.01.31.01.47,0,.18-.01.35-.01.53,0,.16.01.31.01.47,0,.18-.01.35-.01.53,0,.16.01.31.01.47,0,.18-.01.35-.01.53,0,.16.01.31.01.47,0,.18-.01.35-.01.53,0,.16.01.31.01.47,0,.18-.01.35-.01.53,0,.16.01.31.01.47,0,.18-.01.35-.01.53,0,.16.01.31.01.47,0,.18-.01.35-.01.53,0,.16.01.31.01.47,0,.18-.01.35-.01.53,0,.16.01.31.01.47,0,.18-.01.35-.01.53,0,.16.01.31.01.47,0,.18-.01.35-.01.53,0,.16.01.31.01.47,0,.18-.01.35-.01.53,0,.16.01.31.01.47,0,.18-.01.35-.01.53,0,.16.01.31.01.47,0,.18-.01.35-.01.53,0,.16.01.31.01.47,0,.18-.01.35-.01.53,0,.16.01.31.01.47,0,.18-.01.35-.01.53,0,.16.01.31.01.47,0,.18-.01.35-.01.53,0,.16.01.31.01.47,0,.18-.01.35-.01.53,0,.16.01.31.01.47,0,.18-.01.35-.01.53,0,.16.01.31.01.47,0,.18-.01.35-.01.53,0,.16.01.31.01.47,0,.18-.01.35-.01.53,0,.16.01.31.01.47,0,.18-.01.35-.01.53,0,.16.01.31.01.47,0,.18-.01.35-.01.53,0,.16.01.31.01.47,0,.18-.01.35-.01.53,0,.16.01.31.01.47,0,.18-.01.35-.01.53,0,.16.01.31.01.47,0,.18-.01.35-.01.53,0,.16.01.31.01.47,0,.18-.01.35-.01.53,0,.16.01.31.01.47,0,.18-.01.35-.01.53,0,9.98,4.38,19.58,12.33,27.03,12.38,11.6,32.97,17.65,55.08,16.2l213.93-14.06Z"/>
  <path class="cls-3" d="M596.37,316.27c7-8,20-9,31-13,12-3,24-4,36-8,31-8,60-14,91-22,25-8,51-15,66-38,.62-.87,1.21-1.75,1.78-2.65-.94-9.03-5.39-17.5-12.78-24.15-6.19-5.57-14.29-9.78-24.07-12.52l-189.25-52.89c-.43-.12-.8-.24-1.16-.35v175.45c.49-.63.96-1.28,1.47-1.9Z"/>
  <path class="cls-2" d="M594.89,318.17v-175.45c-.64-.21-1.18-.41-1.6-.6l-38.61-104.72c-2.89-7.84-9.92-18.64-27.02-25.55-4.3-1.74-8.87-3.06-13.58-4.03v245.74c8.47,2.53,15.05,6.83,17.14,12.48l34.61,93.86-5.72,15.51c3.4-.09,6.82-.14,10.26-.14,6.74-19.27,11.66-40.38,24.53-57.1Z"/>
  <path class="cls-5" d="M555.17,666.4c9.07-8.96,12.69-18.34,14.09-23.54l35.35-95.89,1.16-.32v-236.7c-3.65,1.52-6.91,3.48-9.4,6.32-14,17-19,39-26,59-3.44,0-6.86.05-10.26.14l-14.81,40.16s-3.21,18.96-31.22,24.41v245.3c20.77-3.01,33.6-11.5,41.09-18.89Z"/>
  <path class="cls-6" d="M781.47,497.54l3.82-1.07c9.4-2.63,17.27-6.64,23.38-11.92,8.81-7.61,13.66-17.68,13.67-28.35,0,0,0,0,0,0,0-.17-.01-.34-.01-.51,0-.16.01-.33.01-.49,0,0,0,0,0,0,0-.17-.01-.34-.01-.51,0-.16.01-.33.01-.49,0,0,0,0,0,0,0-.17-.01-.34-.01-.51,0-.16.01-.33.01-.49,0,0,0,0,0,0,0-.17-.01-.34-.01-.51,0-.16.01-.33.01-.49,0,0,0,0,0,0,0-.17-.01-.34-.01-.51,0-.16.01-.33.01-.49,0,0,0,0,0,0,0-.17-.01-.34-.01-.51,0-.16.01-.33.01-.49,0,0,0,0,0,0,0-.17-.01-.34-.01-.51,0-.16.01-.33.01-.49s-.01-.34-.01-.51c0-.16.01-.33.01-.49,0,0,0,0,0,0,0-.17-.01-.34-.01-.51,0-.16.01-.33.01-.49,0,0,0,0,0,0,0-.17-.01-.34-.01-.51,0-.16.01-.33.01-.49,0,0,0,0,0,0,0-.17-.01-.34-.01-.51,0-.16.01-.33.01-.49,0,0,0,0,0,0,0-.17-.01-.34-.01-.51,0-.16.01-.33.01-.49,0,0,0,0,0,0,0-.17-.01-.34-.01-.51,0-.16.01-.33.01-.49,0,0,0,0,0,0,0-.17-.01-.34-.01-.51,0-.16.01-.33.01-.49,0,0,0,0,0,0,0-.17-.01-.34-.01-.51,0-.16.01-.33.01-.49,0,0,0,0,0,0,0-.17-.01-.34-.01-.51,0-.16.01-.33.01-.49,0,0,0,0,0,0,0-.17-.01-.34-.01-.51,0-.16.01-.33.01-.49,0,0,0,0,0,0,0-.17-.01-.34-.01-.51,0-.16.01-.33.01-.49,0,0,0,0,0,0,0-.17-.01-.34-.01-.51,0-.16.01-.33.01-.49,0,0,0,0,0,0,0-.17-.01-.34-.01-.51,0-.16.01-.33.01-.49,0,0,0,0,0,0,0-.17-.01-.34-.01-.51,0-.16.01-.33.01-.49,0,0,0,0,0,0,0-.17-.01-.34-.01-.51,0-.16.01-.33.01-.49,0,0,0,0,0,0,0-.17-.01-.34-.01-.51,0-.16.01-.33.01-.49,0,0,0,0,0,0,0-.17-.01-.34-.01-.51,0-.16.01-.33.01-.49,0,0,0,0,0,0,0-.17-.01-.34-.01-.51,0-.16.01-.33.01-.49,0,0,0,0,0,0,0-.17-.01-.34-.01-.51,0-.16.01-.33.01-.49,0,0,0,0,0,0,0-.17-.01-.34-.01-.51,0-.16.01-.33.01-.49,0,0,0,0,0,0,0-.17-.01-.34-.01-.51,0-.16.01-.33.01-.49,0,0,0,0,0,0,0-.17-.01-.34-.01-.51,0-.16.01-.33.01-.49,0,0,0,0,0,0,0-.17-.01-.34-.01-.51,0-.16.01-.33.01-.49s-.01-.34-.01-.51c0-.16.01-.33.01-.49,0,0,0,0,0,0,0-.17-.01-.34-.01-.51,0-.16.01-.33.01-.49,0,0,0,0,0,0,0-.17-.01-.34-.01-.51,0-.16.01-.33.01-.49,0,0,0,0,0,0,0-.17-.01-.34-.01-.51,0-.16.01-.33.01-.49,0,0,0,0,0,0,0-.17-.01-.34-.01-.51,0-.16.01-.33.01-.49,0,0,0,0,0,0,0-.17-.01-.34-.01-.51,0-.16.01-.33.01-.49,0,0,0,0,0,0,0-.17-.01-.34-.01-.51,0-.16.01-.33.01-.49,0,0,0,0,0,0,0-.17-.01-.34-.01-.51,0-.16.01-.33.01-.49,0,0,0,0,0,0,0-.17-.01-.34-.01-.51,0-.16.01-.33.01-.49,0,0,0,0,0,0,0-.17-.01-.34-.01-.51,0-.16.01-.33.01-.49,0,0,0,0,0,0,0-.17-.01-.34-.01-.51,0-.16.01-.33.01-.49,0,0,0,0,0,0,0-.17-.01-.34-.01-.51,0-.16.01-.33.01-.49,0,0,0,0,0,0,0-.17-.01-.34-.01-.51,0-.16.01-.33.01-.49,0,0,0,0,0,0,0-.17-.01-.34-.01-.51,0-.16.01-.33.01-.49,0,0,0,0,0,0,0-.17-.01-.34-.01-.51,0-.16.01-.33.01-.49,0,0,0,0,0,0,0-.17-.01-.34-.01-.51,0-.16.01-.33.01-.49,0,0,0,0,0,0,0-.17-.01-.34-.01-.51,0-.16.01-.33.01-.49,0,0,0,0,0,0,0-.17-.01-.34-.01-.51,0-.16.01-.33.01-.49,0,0,0,0,0,0,0-.17-.01-.34-.01-.51,0-.16.01-.33.01-.49,0,0,0,0,0,0,0-.17-.01-.34-.01-.51,0-.16.01-.33.01-.49,0,0,0,0,0,0,0-.17-.01-.34-.01-.51,0-.16.01-.33.01-.49,0,0,0,0,0,0,0-.17-.01-.34-.01-.51,0-.16.01-.33.01-.49,0,0,0,0,0,0,0-.17-.01-.34-.01-.51,0-.16.01-.33.01-.49s-.01-.34-.01-.51c0-.16.01-.33.01-.49,0,0,0,0,0,0,0-.17-.01-.34-.01-.51,0-.16.01-.33.01-.49,0,0,0,0,0,0,0-.17-.01-.34-.01-.51,0-.16.01-.33.01-.49,0,0,0,0,0,0,0-.17-.01-.34-.01-.51,0-.16.01-.33.01-.49,0,0,0,0,0,0,0-.17-.01-.34-.01-.51,0-.16.01-.33.01-.49,0,0,0,0,0,0,0-.17-.01-.34-.01-.51,0-.16.01-.33.01-.49,0,0,0,0,0,0,0-.17-.01-.34-.01-.51,0-.16.01-.33.01-.49,0,0,0,0,0,0,0-.17-.01-.34-.01-.51,0-.16.01-.33.01-.49,0,0,0,0,0,0,0-.17-.01-.34-.01-.51,0-.16.01-.33.01-.49,0,0,0,0,0,0,0-.17-.01-.34-.01-.51,0-.16.01-.33.01-.49,0,0,0,0,0,0,0-.17-.01-.34-.01-.51,0-.16.01-.33.01-.49,0,0,0,0,0,0,0-.17-.01-.34-.01-.51,0-.16.01-.33.01-.49,0,0,0,0,0,0,0-.17-.01-.34-.01-.51,0-.16.01-.33.01-.49,0,0,0,0,0,0,0-.17-.01-.34-.01-.51,0-.16.01-.33.01-.49,0,0,0,0,0,0,0-.17-.01-.34-.01-.51,0-.16.01-.33.01-.49,0,0,0,0,0,0,0-.17-.01-.34-.01-.51,0-.16.01-.33.01-.49,0,0,0,0,0,0,0-.17-.01-.34-.01-.51,0-.16.01-.33.01-.49,0,0,0,0,0,0,0-.17-.01-.34-.01-.51,0-.16.01-.33.01-.49,0,0,0,0,0,0,0-.17-.01-.34-.01-.51,0-.16.01-.33.01-.49,0,0,0,0,0,0,0-.17-.01-.34-.01-.51,0-.16.01-.33.01-.49,0,0,0,0,0,0,0-.17-.01-.34-.01-.51,0-.16.01-.33.01-.49,0,0,0,0,0,0,0-.17-.01-.34-.01-.51,0-.16.01-.33.01-.49,0,0,0,0,0,0,0-.17-.01-.34-.01-.51,0-.16.01-.33.01-.49s-.01-.34-.01-.51c0-.16.01-.33.01-.49,0,0,0,0,0,0,0-.17-.01-.34-.01-.51,0-.16.01-.33.01-.49,0,0,0,0,0,0,0-.17-.01-.34-.01-.51,0-.16.01-.33.01-.49,0,0,0,0,0,0,0-.17-.01-.34-.01-.51,0-.16.01-.33.01-.49,0,0,0,0,0,0,0-.17-.01-.34-.01-.51,0-.16.01-.33.01-.49,0,0,0,0,0,0,0-.17-.01-.34-.01-.51,0-.16.01-.33.01-.49,0,0,0,0,0,0,0-.17-.01-.34-.01-.51,0-.16.01-.33.01-.49,0,0,0,0,0,0,0-.17-.01-.34-.01-.51,0-.16.01-.33.01-.49,0,0,0,0,0,0,0-.17-.01-.34-.01-.51,0-.16.01-.33.01-.49,0,0,0,0,0,0,0-.17-.01-.34-.01-.51,0-.16.01-.33.01-.49,0,0,0,0,0,0,0-.17-.01-.34-.01-.51,0-.16.01-.33.01-.49,0,0,0,0,0,0,0-.17-.01-.34-.01-.51,0-.16.01-.33.01-.49,0,0,0,0,0,0,0-.17-.01-.34-.01-.51,0-.16.01-.33.01-.49,0,0,0,0,0,0,0-.17-.01-.34-.01-.51,0-.16.01-.33.01-.49,0,0,0,0,0,0,0-.17-.01-.34-.01-.51,0-.16.01-.33.01-.49,0,0,0,0,0,0,0-.17-.01-.34-.01-.51,0-.16.01-.33.01-.49,0,0,0,0,0,0,0-.17-.01-.34-.01-.51,0-.16.01-.33.01-.49,0,0,0,0,0,0,0-.17-.01-.34-.01-.51,0-.16.01-.33.01-.49,0,0,0,0,0,0,0-.17-.01-.34-.01-.51,0-.16.01-.33.01-.49,0,0,0,0,0,0,0-.17-.01-.34-.01-.51,0-.16.01-.33.01-.49,0,0,0,0,0,0,0-.17-.01-.34-.01-.51,0-.16.01-.33.01-.49,0,0,0,0,0,0,0-.17-.01-.34-.01-.51,0-.16.01-.33.01-.49,0,0,0,0,0,0,0-.17-.01-.34-.01-.51,0-.16.01-.33.01-.49,0,0,0,0,0,0,0-.17-.01-.34-.01-.51,0-.16.01-.33.01-.49,0,0,0,0,0,0,0-.17-.01-.34-.01-.51,0-.16.01-.33.01-.49,0,0,0,0,0,0,0-.17-.01-.34-.01-.51,0-.16.01-.33.01-.49,0,0,0,0,0,0,0-.17-.01-.34-.01-.51,0-.16.01-.33.01-.49,0,0,0,0,0,0,0-.17-.01-.34-.01-.51,0-.16.01-.33.01-.49,0,0,0,0,0,0,0-.17-.01-.34-.01-.51,0-.16.01-.33.01-.49,0,0,0,0,0,0,0-.17-.01-.34-.01-.51,0-.16.01-.33.01-.49,0,0,0,0,0,0,0-.17-.01-.34-.01-.51,0-.16.01-.33.01-.49,0,0,0,0,0,0,0-.17-.01-.34-.01-.51,0-.16.01-.33.01-.49,0,0,0,0,0,0,0-.17-.01-.34-.01-.51,0-.16.01-.33.01-.49,0,0,0,0,0,0,0-.17-.01-.34-.01-.51,0-.16.01-.33.01-.49,0,0,0,0,0,0,0-.17-.01-.34-.01-.51,0-.16.01-.33.01-.49,0,0,0,0,0,0,0-.17-.01-.34-.01-.51,0-.16.01-.33.01-.49,0,0,0,0,0,0,0-.17-.01-.34-.01-.51,0-.16.01-.33.01-.49,0,0,0,0,0,0,0-.17-.01-.34-.01-.51,0-.16.01-.33.01-.49,0,0,0,0,0,0,0-.17-.01-.34-.01-.51,0-.16.01-.33.01-.49,0,0,0,0,0,0,0-.17-.01-.34-.01-.51,0-.16.01-.33.01-.49,0,0,0,0,0,0,0-.17-.01-.34-.01-.51,0-.16.01-.33.01-.49,0,0,0,0,0,0,0-.17-.01-.34-.01-.51,0-.16.01-.33.01-.49,0,0,0,0,0,0,0-.17-.01-.34-.01-.51,0-.16.01-.33.01-.49,0,0,0,0,0,0,0-.17-.01-.34-.01-.51,0-.16.01-.33.01-.49,0,0,0,0,0,0,0-.17-.01-.34-.01-.51,0-.16.01-.33.01-.49,0,0,0,0,0,0,0-.17-.01-.34-.01-.51,0-.16.01-.33.01-.49,0,0,0,0,0,0,0-.17-.01-.34-.01-.51,0-.16.01-.33.01-.49,0,0,0,0,0,0,0-.17-.01-.34-.01-.51,0-.16.01-.33.01-.49,0,0,0,0,0,0,0-.17-.01-.34-.01-.51,0-.16.01-.33.01-.49,0,0,0,0,0,0,0-.17-.01-.34-.01-.51,0-.16.01-.33.01-.49,0,0,0,0,0,0,0-.17-.01-.34-.01-.51,0-.16.01-.33.01-.49,0,0,0,0,0,0,0-.17-.01-.34-.01-.51,0-.16.01-.33.01-.49,0,0,0,0,0,0,0-.17-.01-.34-.01-.51,0-.16.01-.33.01-.49,0,0,0,0,0,0,0-.17-.01-.34-.01-.51,0-.16.01-.33.01-.49,0,0,0,0,0,0,0-.17-.01-.34-.01-.51,0-.16.01-.33.01-.49,0,0,0,0,0,0,0-.17-.01-.34-.01-.51,0-.16.01-.33.01-.49,0,0,0,0,0,0,0-.17-.01-.34-.01-.51,0-.16.01-.33.01-.49,0,0,0,0,0,0,0-.17-.01-.34-.01-.51,0-.16.01-.33.01-.49,0,0,0,0,0,0,0-.17-.01-.34-.01-.51,0-.16.01-.33.01-.49,0,0,0,0,0,0,0-.17-.01-.34-.01-.51,0-.16.01-.33.01-.49,0,0,0,0,0,0,0-.17-.01-.34-.01-.51,0-.16.01-.33.01-.49,0,0,0,0,0,0,0-.17-.01-.34-.01-.51,0-.16.01-.33.01-.49,0,0,0,0,0,0,0-.17-.01-.34-.01-.51,0-.16.01-.33.01-.49,0,0,0,0,0,0,0-.17-.01-.34-.01-.51,0-.16.01-.33.01-.49,0,0,0,0,0,0,0-.17-.01-.34-.01-.51,0-.16.01-.33.01-.49,0,0,0,0,0,0,0-.17-.01-.34-.01-.51,0-.16.01-.33.01-.49,0,0,0,0,0,0,0-.17-.01-.34-.01-.51,0-.16.01-.33.01-.49,0,0,0,0,0,0,0-.17-.01-.34-.01-.51,0-.16.01-.33.01-.49,0,0,0,0,0,0,0-.17-.01-.34-.01-.51,0-.16.01-.33.01-.49,0,0,0,0,0,0,0-.17-.01-.34-.01-.51,0-.16.01-.33.01-.49,0,0,0,0,0,0,0-.17-.01-.34-.01-.51,0-.16.01-.33.01-.49,0,0,0,0,0,0,0-.17-.01-.34-.01-.51,0-.16.01-.33.01-.49,0,0,0,0,0,0,0-.17-.01-.34-.01-.51,0-.16.01-.33.01-.49,0,0,0,0,0,0,0-.17-.01-.34-.01-.51,0-.16.01-.33.01-.49,0,0,0,0,0,0,0-.17-.01-.34-.01-.51,0-.16.01-.33.01-.49,0,0,0,0,0,0,0-.17-.01-.34-.01-.51,0-.16.01-.33.01-.49,0,0,0,0,0,0,0-.17-.01-.34-.01-.51,0-.16.01-.33.01-.49,0,0,0,0,0,0,0-.17-.01-.34-.01-.51,0-.16.01-.33.01-.49,0,0,0,0,0,0,0-.17-.01-.34-.01-.51,0-.16.01-.33.01-.49,0,0,0,0,0,0,0-.17-.01-.34-.01-.51,0-.16.01-.33.01-.49,0,0,0,0,0,0,0-.17-.01-.34-.01-.51,0-.16.01-.33.01-.49,0,0,0,0,0,0,0-.17-.01-.34-.01-.51,0-.16.01-.33.01-.49,0,0,0,0,0,0,0-.17-.01-.34-.01-.51,0-.16.01-.33.01-.49,0,0,0,0,0,0,0-.17-.01-.34-.01-.51,0-.16.01-.33.01-.49,0,0,0,0,0,0,0-.17-.01-.34-.01-.51,0-.16.01-.33.01-.49,0,0,0,0,0,0,0-.17-.01-.34-.01-.51,0-.16.01-.33.01-.49,0,0,0,0,0,0,0-.17-.01-.34-.01-.51,0-.16.01-.33.01-.49,0,0,0,0,0,0,0-.17-.01-.34-.01-.51,0-.16.01-.33.01-.49,0,0,0,0,0,0,0-.17-.01-.34-.01-.51,0-.16.01-.33.01-.49,0,0,0,0,0,0,0-.17-.01-.34-.01-.51,0-.16.01-.33.01-.49,0,0,0,0,0,0,0-.17-.01-.34-.01-.51,0-.16.01-.33.01-.49,0,0,0,0,0,0,0-.17-.01-.34-.01-.51,0-.16.01-.33.01-.49,0,0,0,0,0,0,0-.17-.01-.34-.01-.51,0-.16.01-.33.01-.49,0,0,0,0,0,0,0-.17-.01-.34-.01-.51,0-.16.01-.33.01-.49,0,0,0,0,0,0,0-.17-.01-.34-.01-.51,0-.16.01-.33.01-.49,0,0,0,0,0,0,0-.17-.01-.34-.01-.51,0-.16.01-.33.01-.49,0,0,0,0,0,0,0-.17-.01-.34-.01-.51,0-.16.01-.33.01-.49,0,0,0,0,0,0,0-.17-.01-.34-.01-.51,0-.16.01-.33.01-.49,0,0,0,0,0,0,0-.17-.01-.34-.01-.51,0-.16.01-.33.01-.49,0,0,0,0,0,0,0-.17-.01-.34-.01-.51,0-.16.01-.33.01-.49,0,0,0,0,0,0,0-.17-.01-.34-.01-.51,0-.16.01-.33.01-.49,0,0,0,0,0,0,0-.17-.01-.34-.01-.51,0-.16.01-.33.01-.49,0,0,0,0,0,0,0-.17-.01-.34-.01-.51,0-.16.01-.33.01-.49,0,0,0,0,0,0,0-.17-.01-.34-.01-.51,0-.16.01-.33.01-.49,0,0,0,0,0,0,0-.17-.01-.34-.01-.51,0-.16.01-.33.01-.49,0,0,0,0,0,0,0-.17-.01-.34-.01-.51,0-.16.01-.33.01-.49,0,0,0,0,0,0,0-.17-.01-.34-.01-.51,0-.16.01-.33.01-.49,0,0,0,0,0,0,0-.17-.01-.34-.01-.51,0-.16.01-.33.01-.49,0,0,0,0,0,0,0-.17-.01-.34-.01-.51,0-.16.01-.33.01-.49,0,0,0,0,0,0,0-.17-.01-.34-.01-.51,0-.16.01-.33.01-.49,0,0,0,0,0,0,0-.17-.01-.34-.01-.51,0-.16.01-.33.01-.49,0,0,0,0,0,0,0-.17-.01-.34-.01-.51,0-.16.01-.33.01-.49,0,0,0,0,0,0,0-.17-.01-.34-.01-.51,0-.16.01-.33.01-.49,0,0,0,0,0,0,0-.17-.01-.34-.01-.51,0-.16.01-.33.01-.49,0,0,0,0,0,0,0-.17-.01-.34-.01-.51,0-.16.01-.33.01-.49,0,0,0,0,0,0,0-.17-.01-.34-.01-.51,0-.16.01-.33.01-.49,0,0,0,0,0,0,0-.17-.01-.34-.01-.51,0-.16.01-.33.01-.49,0,0,0,0,0,0,0-.17-.01-.34-.01-.51,0-.16.01-.33.01-.49,0,0,0,0,0,0,0-.17-.01-.34-.01-.51,0-.16.01-.33.01-.49,0,0,0,0,0,0,0-.17-.01-.34-.01-.51,0-.16.01-.33.01-.49,0,0,0,0,0,0,0-.17-.01-.34-.01-.51,0-.16.01-.33.01-.49,0,0,0,0,0,0,0-.17-.01-.34-.01-.51,0-.16.01-.33.01-.49,0,0,0,0,0,0,0-.17-.01-.34-.01-.51,0-.16.01-.33.01-.49,0,0,0,0,0,0,0-.17-.01-.34-.01-.51,0-.16.01-.33.01-.49,0,0,0,0,0,0,0-.17-.01-.34-.01-.51,0-.16.01-.33.01-.49,0,0,0,0,0,0,0-.17-.01-.34-.01-.51,0-.16.01-.33.01-.49,0,0,0,0,0,0,0-.17-.01-.34-.01-.51,0-.16.01-.33.01-.49,0,0,0,0,0,0,0-.17-.01-.34-.01-.51,0-.16.01-.33.01-.49,0,0,0,0,0,0,0-.17-.01-.34-.01-.51,0-.16.01-.33.01-.49,0,0,0,0,0,0,0-.17-.01-.34-.01-.51,0-.16.01-.33.01-.49,0,0,0,0,0,0,0-.17-.01-.34-.01-.51,0-.16.01-.33.01-.49,0,0,0,0,0,0,0-.17-.01-.34-.01-.51,0-.16.01-.33.01-.49,0,0,0,0,0,0,0-.17-.01-.34-.01-.51,0-.16.01-.33.01-.49,0,0,0,0,0,0,0-.17-.01-.34-.01-.51,0-.16.01-.33.01-.49,0,0,0,0,0,0,0-.17-.01-.34-.01-.51,0-.16.01-.33.01-.49,0,0,0,0,0,0,0-.17-.01-.34-.01-.51,0-.16.01-.33.01-.49,0,0,0,0,0,0,0-.17-.01-.34-.01-.51,0-.16.01-.33.01-.49,0,0,0,0,0,0,0-.17-.01-.34-.01-.51,0-.16.01-.33.01-.49,0,0,0,0,0,0,0-.17-.01-.34-.01-.51,0-.16.01-.33.01-.49,0,0,0,0,0,0,0-.17-.01-.34-.01-.51,0-.16.01-.33.01-.49,0,0,0,0,0,0,0-.17-.01-.34-.01-.51,0-.16.01-.33.01-.49,0,0,0,0,0,0,0-.17-.01-.34-.01-.51,0-.16.01-.33.01-.49,0,0,0,0,0,0,0-.17-.01-.34-.01-.51,0-.16.01-.33.01-.49,0,0,0,0,0,0,0-.17-.01-.34-.01-.51,0-.16.01-.33.01-.49,0,0,0,0,0,0,0-1.21-.07-2.41-.19-3.6-.57.9-1.16,1.78-1.78,2.65-15,23-41,30-66,38-31,8-60,14-91,22-12,4-24,5-36,8-7.08,2.58-14.99,3.92-21.6,6.68v236.7l175.7-49.1Z"/>
  <path class="cls-7" d="M460.12,13.53l-156.9,75.64c-1.41.68-3.53,1.37-6.17,1.86v245.24c6.31-.71,12.21-2.28,17.02-4.59l156.9-75.64c12.58-6.06,30.09-6.36,43.11-2.47V7.82c-18.14-3.72-38.44-1.78-53.97,5.7Z"/>
  <path class="cls-3" d="M514.09,685.29v-245.3c-4.89.95-10.54,1.5-17.07,1.45h0c-9.1.18-18.47-1.37-26.05-5.03l-156.9-75.64c-4.81-2.32-10.71-3.88-17.02-4.59v245.24c2.64.49,4.76,1.18,6.17,1.86l156.9,75.64c13.38,6.45,27.4,7.66,36.95,7.51,6.19.03,11.85-.38,17.01-1.13Z"/>
  <path class="cls-2" d="M14.58,343.24l98.76-105.67,7.63-1.35L5.01,120.26c0,.18-.01.36-.01.54,0,.16,0,.32.01.48,0,.18-.01.35-.01.52,0,.16,0,.32.01.48,0,.18-.01.35-.01.52,0,.16,0,.32.01.48,0,.18-.01.35-.01.52,0,.16,0,.32.01.48,0,.18-.01.35-.01.52,0,.16,0,.32.01.48,0,.18-.01.35-.01.52,0,.16,0,.32.01.48,0,.18-.01.35-.01.52,0,.16,0,.32.01.48,0,.18-.01.35-.01.52,0,.16,0,.32.01.48,0,.18-.01.35-.01.52,0,.16,0,.32.01.48,0,.18-.01.35-.01.52,0,.16,0,.32.01.48,0,.18-.01.35-.01.52,0,.16,0,.32.01.48,0,.18-.01.35-.01.52,0,.16,0,.32.01.48,0,.18-.01.35-.01.52,0,.16,0,.32.01.48,0,.18-.01.35-.01.52,0,.16,0,.32.01.48,0,.18-.01.35-.01.52,0,.16,0,.32.01.48,0,.18-.01.35-.01.52,0,.16,0,.32.01.48,0,.18-.01.35-.01.52,0,.16,0,.32.01.48,0,.18-.01.35-.01.52,0,.16,0,.32.01.48,0,.18-.01.35-.01.52,0,.16,0,.32.01.48,0,.18-.01.35-.01.52,0,.16,0,.32.01.48,0,.18-.01.35-.01.52,0,.16,0,.32.01.48,0,.18-.01.35-.01.52,0,.16,0,.32.01.48,0,.18-.01.35-.01.52,0,.16,0,.32.01.48,0,.18-.01.35-.01.52,0,.16,0,.32.01.48,0,.18-.01.35-.01.52,0,.16,0,.32.01.48,0,.18-.01.35-.01.52,0,.16,0,.32.01.48,0,.18-.01.35-.01.52,0,.16,0,.32.01.48,0,.18-.01.35-.01.52,0,.16,0,.32.01.48,0,.18-.01.35-.01.52,0,.16,0,.32.01.48,0,.18-.01.35-.01.52,0,.16,0,.32.01.48,0,.18-.01.35-.01.52,0,.16,0,.32.01.48,0,.18-.01.35-.01.52,0,.16,0,.32.01.48,0,.18-.01.35-.01.52,0,.16,0,.32.01.48,0,.18-.01.35-.01.52,0,.16,0,.32.01.48,0,.18-.01.35-.01.52,0,.16,0,.32.01.48,0,.18-.01.35-.01.52,0,.16,0,.32.01.48,0,.18-.01.35-.01.52,0,.16,0,.32.01.48,0,.18-.01.35-.01.52,0,.16,0,.32.01.48,0,.18-.01.35-.01.52,0,.16,0,.32.01.48,0,.18-.01.35-.01.52,0,.16,0,.32.01.48,0,.18-.01.35-.01.52,0,.16,0,.32.01.48,0,.18-.01.35-.01.52,0,.16,0,.32.01.48,0,.18-.01.35-.01.52,0,.16,0,.32.01.48,0,.18-.01.35-.01.52,0,.16,0,.32.01.48,0,.18-.01.35-.01.52,0,.16,0,.32.01.48,0,.18-.01.35-.01.52,0,.16,0,.32.01.48,0,.18-.01.35-.01.52,0,.16,0,.32.01.48,0,.18-.01.35-.01.52,0,.16,0,.32.01.48,0,.18-.01.35-.01.52,0,.16,0,.32.01.48,0,.18-.01.35-.01.52,0,.16,0,.32.01.48,0,.18-.01.35-.01.52,0,.16,0,.32.01.48,0,.18-.01.35-.01.52,0,.16,0,.32.01.48,0,.18-.01.35-.01.52,0,.16,0,.32.01.48,0,.18-.01.35-.01.52,0,.16,0,.32.01.48,0,.18-.01.35-.01.52,0,.16,0,.32.01.48,0,.18-.01.35-.01.52,0,.16,0,.32.01.48,0,.18-.01.35-.01.52,0,.16,0,.32.01.48,0,.18-.01.35-.01.52,0,.16,0,.32.01.48,0,.18-.01.35-.01.52,0,.16,0,.32.01.48,0,.18-.01.35-.01.52,0,.16,0,.32.01.48,0,.18-.01.35-.01.52,0,.16,0,.32.01.48,0,.18-.01.35-.01.52,0,.16,0,.32.01.48,0,.18-.01.35-.01.52,0,.16,0,.32.01.48,0,.18-.01.35-.01.52,0,.16,0,.32.01.48,0,.18-.01.35-.01.52,0,.16,0,.32.01.48,0,.18-.01.35-.01.52,0,.16,0,.32.01.48,0,.18-.01.35-.01.52,0,.16,0,.32.01.48,0,.18-.01.35-.01.52,0,.16,0,.32.01.48,0,.18-.01.35-.01.52,0,.16,0,.32.01.48,0,.18-.01.35-.01.52,0,.16,0,.32.01.48,0,.18-.01.35-.01.52,0,.16,0,.32.01.48,0,.18-.01.35-.01.52,0,.16,0,.32.01.48,0,.18-.01.35-.01.52,0,.16,0,.32.01.48,0,.18-.01.35-.01.52,0,.16,0,.32.01.48,0,.18-.01.35-.01.52,0,.16,0,.32.01.48,0,.18-.01.35-.01.52,0,.16,0,.32.01.48,0,.18-.01.35-.01.52,0,.16,0,.32.01.48,0,.18-.01.35-.01.52,0,.16,0,.32.01.48,0,.18-.01.35-.01.52,0,.16,0,.32.01.48,0,.18-.01.35-.01.52,0,.16,0,.32.01.48,0,.18-.01.35-.01.52,0,.16,0,.32.01.48,0,.18-.01.35-.01.52,0,.16,0,.32.01.48,0,.18-.01.35-.01.52,0,.16,0,.32.01.48,0,.18-.01.35-.01.52s0,.37,0,.55c0,.15,0,.3,0,.45,0,.16,0,.32.01.48,0,.18-.01.35-.01.52,0,.16,0,.32.01.48,0,.18-.01.35-.01.52,0,.16,0,.32.01.48,0,.18-.01.35-.01.52,0,.16,0,.32.01.48,0,.18-.01.35-.01.52,0,.16,0,.32.01.48,0,.18-.01.35-.01.52,0,.16,0,.32.01.48,0,.18-.01.35-.01.52,0,.16,0,.32.01.48,0,.18-.01.35-.01.52,0,.16,0,.32.01.48,0,.18-.01.35-.01.52s0,.37,0,.55c0,.15,0,.3,0,.45,0,.16,0,.32.01.48,0,.18-.01.35-.01.52,0,.16,0,.32.01.48,0,.18-.01.35-.01.52,0,.16,0,.32.01.48,0,.18-.01.35-.01.52,0,.16,0,.32.01.48,0,.18-.01.35-.01.52,0,.16,0,.32.01.48,0,.18-.01.35-.01.52,0,.16,0,.32.01.48,0,.18-.01.35-.01.52,0,.16,0,.32.01.48,0,.18-.01.35-.01.52,0,.16,0,.32.01.48,0,.18-.01.35-.01.52,0,.16,0,.32.01.48,0,.18-.01.35-.01.52,0,.16,0,.32.01.48,0,.18-.01.35-.01.52,0,.16,0,.32.01.48,0,.18-.01.35-.01.52,0,.16,0,.32.01.48,0,.18-.01.35-.01.52,0,.16,0,.32.01.48,0,.18-.01.35-.01.52s0,.37,0,.55c0,.15,0,.3,0,.45,0,.16,0,.32.01.48,0,.18-.01.35-.01.52,0,.16,0,.32.01.48,0,.18-.01.35-.01.52,0,.16,0,.32.01.48,0,.18-.01.35-.01.52,0,.16,0,.32.01.48,0,.18-.01.35-.01.52,0,.16,0,.32.01.48,0,.18-.01.35-.01.52,0,.16,0,.32.01.48,0,.18-.01.35-.01.52,0,.16,0,.32.01.48,0,.18-.01.35-.01.52,0,.16,0,.32.01.48,0,.18-.01.35-.01.52,0,.16,0,.32.01.48,0,.18-.01.35-.01.52,0,.16,0,.32.01.48,0,.18-.01.35-.01.52,0,.16,0,.32.01.48,0,.18-.01.35-.01.52,0,.16,0,.32.01.48,0,.18-.01.35-.01.52,0,.16,0,.32.01.48,0,.18-.01.35-.01.52,0,.16,0,.32.01.48,0,.18-.01.35-.01.52,0,.16,0,.32.01.48,0,.18-.01.35-.01.52,0,.16,0,.32.01.48,0,.18-.01.35-.01.52,0,.16,0,.32.01.48,0,.18-.01.35-.01.52,0,.16,0,.32.01.48,0,.18-.01.35-.01.52,0,.16,0,.32.01.48,0,.18-.01.35-.01.52,0,.16,0,.32.01.48,0,.18-.01.35-.01.52,0,.16,0,.32.01.48,0,.18-.01.35-.01.52,0,.16,0,.32.01.48,0,.18-.01.35-.01.52,0,.16,0,.32.01.48,0,.18-.01.35-.01.52,0,.16,0,.32.01.48,0,.18-.01.35-.01.52,0,.16,0,.32.01.48,0,.18-.01.35-.01.52,0,.16,0,.32.01.48,0,.18-.01.35-.01.52,0,.16,0,.32.01.48,0,.18-.01.35-.01.52,0,.16,0,.32.01.48,0,.18-.01.35-.01.52,0,.16,0,.32.01.48,0,.18-.01.35-.01.52,0,.16,0,.32.01.48,0,.18-.01.35-.01.52,0,.16,0,.32.01.48,0,.18-.01.35-.01.52,0,.16,0,.32.01.48,0,.18-.01.35-.01.52,0,.16,0,.32.01.48,0,.18-.01.35-.01.52,0,.16,0,.32.01.48,0,.18-.01.35-.01.52,0,.16,0,.32.01.48,0,.18-.01.35-.01.52,0,.16,0,.32.01.48,0,.18-.01.35-.01.52,0,.16,0,.32.01.48,0,.18-.01.35-.01.52,0,.16,0,.32.01.48,0,.18-.01.35-.01.52,0,.16,0,.32.01.48,0,.18-.01.35-.01.52,0,.16,0,.32.01.48,0,.18-.01.35-.01.52,0,.16,0,.32.01.48,0,.18-.01.35-.01.52,0,.16,0,.32.01.48,0,.18-.01.35-.01.52,0,.16,0,.32.01.48,0,.18-.01.35-.01.52,0,.16,0,.32.01.48,0,.18-.01.35-.01.52,0,.16,0,.32.01.48,0,.18-.01.35-.01.52,0,.16,0,.32.01.48,0,.18-.01.35-.01.52,0,.16,0,.32.01.48,0,.18-.01.35-.01.52,0,.16,0,.32.01.48,0,.18-.01.35-.01.52,0,.16,0,.32.01.48,0,.18-.01.35-.01.52,0,.16,0,.32.01.48,0,.18-.01.35-.01.52,0,.16,0,.32.01.48,0,.18-.01.35-.01.52,0,.16,0,.32.01.48,0,.18-.01.35-.01.52,0,.16,0,.32.01.48,0,.18-.01.35-.01.52,0,.16,0,.32.01.48,0,.18-.01.35-.01.52,0,.16,0,.32.01.48,0,.18-.01.35-.01.52,0,.16,0,.32.01.48,0,.18-.01.35-.01.52,0,.16,0,.32.01.48,0,.18-.01.35-.01.52,0,.16,0,.32.01.48,0,.18-.01.35-.01.52,0,.16,0,.32.01.48,0,.18-.01.35-.01.52,0,.16,0,.32.01.48,0,.18-.01.35-.01.52,0,.16,0,.32.01.48,0,.18-.01.35-.01.52,0,.16,0,.32.01.48,0,.18-.01.35-.01.52,0,.16,0,.32.01.48,0,.18-.01.35-.01.52,0,.16,0,.32.01.48,0,.18-.01.35-.01.52,0,.16,0,.32.01.48,0,.18-.01.35-.01.52,0,.16,0,.32.01.48,0,.18-.01.35-.01.52,0,.16,0,.32.01.48,0,.18-.01.35-.01.52,0,.16,0,.32.01.48,0,.18-.01.35-.01.52,0,.16,0,.32.01.48,0,.18-.01.35-.01.52,0,.16,0,.32.01.48,0,.18-.01.35-.01.52,0,.16,0,.32.01.48,0,.18-.01.35-.01.52,0,.16,0,.32.01.48,0,.18-.01.35-.01.52,0,.16,0,.32.01.48,0,.18-.01.35-.01.52,0,.16,0,.32.01.48,0,.18-.01.35-.01.52,0,.16,0,.32.01.48,0,.18-.01.35-.01.52,0,.16,0,.32.01.48,0,.18-.01.35-.01.52,0,.16,0,.32.01.48,0,.18-.01.35-.01.52,0,.16,0,.32.01.48,0,.18-.01.35-.01.52,0,.16,0,.32.01.48,0,.18-.01.35-.01.52,0,.16,0,.32.01.48,0,.18-.01.35-.01.52,0,.16,0,.32.01.48,0,.18-.01.35-.01.52,0,.16,0,.32.01.48,0,.18-.01.35-.01.52,0,.16,0,.32.01.48,0,.18-.01.35-.01.52,0,.16,0,.32.01.48,0,.18-.01.35-.01.52,0,.16,0,.32.01.48,0,.18-.01.35-.01.52,0,.16,0,.32.01.48,0,.18-.01.35-.01.52,0,.16,0,.32.01.48,0,.18-.01.35-.01.52,0,.16,0,.32.01.48,0,.18-.01.35-.01.52,0,.16,0,.32.01.48,0,.18-.01.35-.01.52,0,.16,0,.32.01.48,0,.18-.01.35-.01.52,0,.16,0,.32.01.48,0,.18-.01.35-.01.52,0,.16,0,.32.01.48,0,.18-.01.35-.01.52,0,.16,0,.32.01.48,0,.18-.01.35-.01.52,0,.16,0,.32.01.48,0,.18-.01.35-.01.52,0,.16,0,.32.01.48,0,.18-.01.35-.01.52,0,.16,0,.32.01.48,0,.18-.01.35-.01.52,0,.16,0,.32.01.48,0,.18-.01.35-.01.52,0,.16,0,.32.01.48,0,.18-.01.35-.01.52,0,.16,0,.32.01.48,0,.18-.01.35-.01.52,0,.16,0,.32.01.48,0,.18-.01.35-.01.52,0,.16,0,.32.01.48,0,.18-.01.35-.01.52,0,.16,0,.32.01.48,0,.18-.01.35-.01.52,0,.16,0,.32.01.48,0,.18-.01.35-.01.52,0,.16,0,.32.01.48,0,.18-.01.35-.01.52,0,.16,0,.32.01.48,0,.18-.01.35-.01.52,0,.16,0,.32.01.48,0,.18-.01.35-.01.52,0,.16,0,.32.01.48,0,.18-.01.35-.01.52,0,.16,0,.32.01.48,0,.18-.01.35-.01.52,0,.16,0,.32.01.48,0,.18-.01.35-.01.52,0,.16,0,.32.01.48,0,.18-.01.35-.01.52,0,.16,0,.32.01.48,0,.18-.01.35-.01.52,0,.16,0,.32.01.48,0,.18-.01.35-.01.52,0,.16,0,.32.01.48,0,.18-.01.35-.01.52,0,1.81.15,3.6.43,5.37,3.03-.06,6.05-.21,9.04-.56,0-1.48.11-2.36.11-2.36Z"/>
  <path class="cls-6" d="M129.25,365.72c0-.17.03-.33.03-.5s-.02-.33-.03-.5c0-.17.03-.33.03-.5s-.02-.33-.03-.5c0-.17.03-.33.03-.5s-.02-.33-.03-.5c0-.17.03-.33.03-.5s-.02-.33-.03-.5c0-.17.03-.33.03-.5s-.02-.33-.03-.5c0-.17.03-.33.03-.5s-.02-.33-.03-.5c0-.17.03-.33.03-.5s-.02-.33-.03-.5c0-.17.03-.33.03-.5s-.02-.33-.03-.5c0-.17.03-.33.03-.5s-.02-.33-.03-.5c0-.17.03-.33.03-.5s-.02-.33-.03-.5c0-.17.03-.33.03-.5s-.02-.33-.03-.5c0-.17.03-.33.03-.5s-.02-.33-.03-.5c0-.17.03-.33.03-.5s-.02-.33-.03-.5c0-.17.03-.33.03-.5s-.02-.33-.03-.5c0-.17.03-.33.03-.5s-.02-.33-.03-.5c0-.17.03-.33.03-.5s-.02-.33-.03-.5c0-.17.03-.33.03-.5s-.02-.33-.03-.5c0-.17.03-.33.03-.5s-.02-.33-.03-.5c0-.17.03-.33.03-.5s-.02-.33-.03-.5c0-.17.03-.33.03-.5s-.02-.33-.03-.5c0-.17.03-.33.03-.5s-.02-.33-.03-.5c0-.17.03-.33.03-.5s-.02-.33-.03-.5c0-.17.03-.33.03-.5s-.02-.33-.03-.5c0-.17.03-.33.03-.5s-.02-.33-.03-.5c0-.17.03-.33.03-.5s-.02-.33-.03-.5c0-.17.03-.33.03-.5s-.02-.33-.03-.5c0-.17.03-.33.03-.5s-.02-.33-.03-.5c0-.17.03-.33.03-.5s-.02-.33-.03-.5c0-.17.03-.33.03-.5s-.02-.33-.03-.5c0-.17.03-.33.03-.5s-.02-.33-.03-.5c0-.17.03-.33.03-.5s-.02-.33-.03-.5c0-.17.03-.33.03-.5s-.02-.33-.03-.5c0-.17.03-.33.03-.5s-.02-.33-.03-.5c0-.17.03-.33.03-.5s-.02-.33-.03-.5c0-.17.03-.33.03-.5s-.02-.33-.03-.5c0-.17.03-.33.03-.5s-.02-.33-.03-.5c0-.17.03-.33.03-.5s-.02-.33-.03-.5c0-.17.03-.33.03-.5s-.02-.33-.03-.5c0-.17.03-.33.03-.5s-.02-.33-.03-.5c0-.13.02-.26.02-.39v-91.59l-15.93,2.83L14.58,343.24s-4.66,37.29,45.76,36.95l77.18-5.18-1.58-9.34-6.66.44c0-.13-.01-.26-.02-.39Z"/>
  <path class="cls-1" d="M495.58,30c16.35,0,32.18,5.67,35.64,15.05l39.94,108.33c2,5.43,8.67,10.12,18.16,12.77l189.25,52.89c18.98,5.31,23.56,17.15,13.76,25.62-3.13,2.7-7.7,5.06-13.76,6.76l-3.82,1.07-185.42,51.82c-.41.11-.81.24-1.21.36-2.08,1.78-3.58,3.73-4.41,5.81-.03.08-.07.16-.11.25l-38.29,103.86s-4.36,25.86-47.51,25.86c-.25,0-.51,0-.77,0h0c-.49,0-.97.01-1.46.01-8.64,0-17.42-1.58-24.59-5.04l-156.9-75.64c-6.74-3.25-15.62-5.03-24.77-5.03-1.53,0-3.07.05-4.61.15l-213.93,14.06c-1.63.11-3.23.16-4.8.16-25.82,0-43.94-13.92-32.44-26.35l92.28-99.64c4.63-5,4.63-10.79,0-15.79L33.53,127.7c-4.68-5.05-4.45-10.35-.8-14.86,2.97-3.68,8.22-6.83,14.95-8.9,5.31-1.63,11.54-2.59,18.31-2.59,1.57,0,3.16.05,4.78.16l213.93,14.06c1.54.1,3.08.15,4.61.15,9.15,0,18.03-1.78,24.77-5.03l156.9-75.64c7.18-3.46,15.96-5.05,24.61-5.05M495.58,0c-13.73,0-26.75,2.77-37.64,8.02l-156.9,75.64c-1.96.95-6.22,2.05-11.74,2.05-.88,0-1.77-.03-2.64-.09l-213.93-14.06c-2.25-.15-4.52-.22-6.75-.22-9.54,0-18.66,1.32-27.11,3.91-12.49,3.83-22.68,10.31-29.48,18.72C2.98,101.91-.26,111.22.02,120.91c.28,9.96,4.26,19.35,11.5,27.17l80.71,87.15L11.52,322.37C0,334.81-3.13,351.76,3.35,366.61c4.88,11.18,14.57,20.12,28,25.85,10.18,4.35,22.15,6.64,34.61,6.64,2.24,0,4.51-.07,6.77-.22l213.93-14.06c.87-.06,1.76-.09,2.64-.09,5.52,0,9.78,1.11,11.74,2.05l156.9,75.64c10.88,5.24,23.89,8.02,37.62,8.02.51,0,1.02,0,1.54-.01.23,0,.46,0,.69,0,32.54,0,51.2-11.79,61.12-21.68,9.53-9.5,13.49-19.51,15.1-25.3l34.41-93.34,174.4-48.74,3.83-1.07c10.11-2.83,18.62-7.18,25.3-12.95,12.37-10.69,17.76-25.95,14.44-40.83-3.83-17.14-18.32-30.4-39.73-36.38l-189.25-52.89c-.08-.02-.15-.04-.22-.06l-37.8-102.52c-3.25-8.81-11.08-20.9-29.93-28.49C519.4,2.14,507.69,0,495.58,0h0Z"/>
</svg>